<svg width="20" height="21" viewBox="0 0 20 21" fill="none" xmlns="http://www.w3.org/2000/svg">
<g id="Search">
<path id="Vector" d="M15.5002 8.85019C15.5002 10.428 14.988 11.8855 14.1252 13.068L18.4771 17.4233C18.9068 17.853 18.9068 18.5508 18.4771 18.9805C18.0474 19.4102 17.3496 19.4102 16.9199 18.9805L12.568 14.6252C11.3855 15.4914 9.92801 16.0002 8.35019 16.0002C4.40051 16.0002 1.2002 12.7999 1.2002 8.85019C1.2002 4.90051 4.40051 1.7002 8.35019 1.7002C12.2999 1.7002 15.5002 4.90051 15.5002 8.85019ZM8.35019 13.8002C9.00024 13.8002 9.64392 13.6722 10.2445 13.4234C10.845 13.1746 11.3907 12.81 11.8504 12.3504C12.31 11.8907 12.6746 11.345 12.9234 10.7445C13.1722 10.1439 13.3002 9.50024 13.3002 8.85019C13.3002 8.20015 13.1722 7.55647 12.9234 6.95591C12.6746 6.35535 12.31 5.80967 11.8504 5.35002C11.3907 4.89037 10.845 4.52575 10.2445 4.27699C9.64392 4.02823 9.00024 3.9002 8.35019 3.9002C7.70015 3.9002 7.05647 4.02823 6.45591 4.27699C5.85535 4.52575 5.30967 4.89037 4.85002 5.35002C4.39037 5.80967 4.02575 6.35535 3.77699 6.95591C3.52823 7.55647 3.40019 8.20015 3.40019 8.85019C3.40019 9.50024 3.52823 10.1439 3.77699 10.7445C4.02575 11.345 4.39037 11.8907 4.85002 12.3504C5.30967 12.81 5.85535 13.1746 6.45591 13.4234C7.05647 13.6722 7.70015 13.8002 8.35019 13.8002Z" fill="#05332B"/>
</g>
</svg>
